<svg xmlns="http://www.w3.org/2000/svg" width="175.514" height="46" viewBox="0 0 175.514 46">
  <g id="Grupo_36" data-name="Grupo 36" transform="translate(-84.537 -49.997)">
    <g id="Grupo_33" data-name="Grupo 33" transform="translate(84.537 50.408)">
      <path id="Caminho_87" data-name="Caminho 87" d="M111.569,97.165a1.681,1.681,0,0,1-1.622-1.247L99.019,55.045c-.016-.06-.026-.1-.125-.1s-.109.036-.125.1L87.841,95.917a1.68,1.68,0,1,1-3.247-.868L95.522,54.177a3.49,3.49,0,0,1,6.744,0L113.193,95.05a1.683,1.683,0,0,1-1.624,2.115Z" transform="translate(-84.537 -51.588)" fill="#fff"/>
    </g>
    <g id="Grupo_34" data-name="Grupo 34" transform="translate(136.048 50.068)">
      <path id="Caminho_88" data-name="Caminho 88" d="M285.454,96.2a1.681,1.681,0,0,1-1.681-1.681V51.951a1.681,1.681,0,1,1,3.361,0V94.519A1.68,1.68,0,0,1,285.454,96.2Z" transform="translate(-283.773 -50.27)" fill="#fff"/>
    </g>
    <g id="Grupo_35" data-name="Grupo 35" transform="translate(116.692 50.068)">
      <path id="Caminho_89" data-name="Caminho 89" d="M222.729,96.2h-6.969a6.859,6.859,0,0,1-6.851-6.851v-37.4a1.681,1.681,0,1,1,3.361,0v37.4a3.494,3.494,0,0,0,3.49,3.49h6.969a1.681,1.681,0,1,1,0,3.361Z" transform="translate(-208.908 -50.27)" fill="#fff"/>
    </g>
    <path id="Caminho_90" data-name="Caminho 90" d="M414.326,50.27h0l0,0a8.515,8.515,0,0,0-6.963,3.955V52.976l-.01.009v-.517a1.681,1.681,0,0,0-3.361,0V94.455a1.681,1.681,0,1,0,3.361,0V60.6a6.973,6.973,0,0,1,13.945,0V94.455a1.681,1.681,0,1,0,3.361,0V60.6A10.345,10.345,0,0,0,414.326,50.27Z" transform="translate(-236.862 -0.202)" fill="#fff"/>
    <path id="Caminho_91" data-name="Caminho 91" d="M564.819,72.129a9.771,9.771,0,0,0-5.666-1.754,8.583,8.583,0,0,0,5.5-4,9.73,9.73,0,0,0,1.283-4.833A11.561,11.561,0,0,0,554.387,50h-2.8a5.964,5.964,0,0,0-5.957,5.957v36.5a1.846,1.846,0,0,1-3.632.464L531.364,52.01a2.69,2.69,0,0,0-5.206,0L515.5,92.959a1.745,1.745,0,0,1-1.689,1.306H507.85a4.335,4.335,0,0,1-4.331-4.331v-39.1a.84.84,0,1,0-1.681,0v39.1a6.018,6.018,0,0,0,6.011,6.011h5.958a3.427,3.427,0,0,0,3.315-2.563l10.66-40.95a1.009,1.009,0,0,1,1.953,0l10.634,40.905a3.519,3.519,0,0,0,3.412,2.639h.043a3.539,3.539,0,0,0,3.484-3.526v-36.5a4.281,4.281,0,0,1,4.277-4.277h2.8a9.878,9.878,0,0,1,9.867,9.867,8.124,8.124,0,0,1-8.115,8.114h-.71a.84.84,0,1,0,0,1.681h2.148a10.216,10.216,0,0,1,10.2,10.2A12.742,12.742,0,0,1,555.209,94.3h-.073a.84.84,0,1,0,0,1.681h.073a14.424,14.424,0,0,0,14.253-14.433A11.662,11.662,0,0,0,564.819,72.129Z" transform="translate(-309.411)" fill="#fff"/>
    <path id="Caminho_92" data-name="Caminho 92" d="M330.98,82.405a1.68,1.68,0,0,0-1.681,1.681v2.561a6.128,6.128,0,0,1-12.255,0V59.759a6.128,6.128,0,0,1,12.255,0v12.12a.961.961,0,0,1-.961.96h-7.253a1.422,1.422,0,1,0,0,2.844h8.456a3.159,3.159,0,0,0,3.118-3.1V59.759a9.489,9.489,0,1,0-18.977,0V86.647a9.489,9.489,0,1,0,18.977,0V84.086A1.681,1.681,0,0,0,330.98,82.405Z" transform="translate(-169.902 -0.202)" fill="#fff"/>
  </g>
</svg>
