<svg xmlns="http://www.w3.org/2000/svg" width="30.583" height="39.576" viewBox="0 0 30.583 39.576"><path id="Caminho_53" data-name="Caminho 53" d="M1136.823,460.16l-1.45.085a3.917,3.917,0,0,0-3.689,4.058l.461,12.54-8.512-10.6a3.908,3.908,0,0,0-5.323-.73l-1.408,1.008a3.919,3.919,0,0,0-1.05,5.233c1.868,3.02,5.23,8.628,7.685,12.723l1.453,2.424-.024.007a23.32,23.32,0,0,0-5.756,2.774,4.077,4.077,0,0,0-1.936,4.29l.634,2.155a5.02,5.02,0,0,0,6.229,3.4l2.959-.864a7.9,7.9,0,0,1,5.28.531c1.159.5,2.61.068,3.89-.317l5.236-1.751c6.223-1.868,4.027-12.276,3.76-13.439l-4.379-20.433A3.9,3.9,0,0,0,1136.823,460.16Zm6.023,24.062a23,23,0,0,1,.5,5.543c-.142,2.842-1,4.52-2.6,5l-5.109,1.712-.09.027a6.365,6.365,0,0,1-2.191.416,10.214,10.214,0,0,0-6.961-.636l-2.962.864a2.543,2.543,0,0,1-3.158-1.722l-.634-2.156c-.117-.4.326-1.134.911-1.514a20.827,20.827,0,0,1,5.117-2.478,11.268,11.268,0,0,1,1.445-.337,1.238,1.238,0,0,0,.866-1.862c-.555-.919-1.376-2.289-2.328-3.877-2.459-4.1-5.826-9.718-7.7-12.753a1.434,1.434,0,0,1,.385-1.916l1.408-1.008a1.431,1.431,0,0,1,1.951.268l10.755,13.395a17.3,17.3,0,0,0-2.647,1.211.584.584,0,0,0-.2.828l.264.4a.579.579,0,0,0,.774.189,17.371,17.371,0,0,1,3.571-1.48,18.117,18.117,0,0,1,3.472-.706.581.581,0,0,0,.527-.6l-.019-.481a.585.585,0,0,0-.637-.561,18.6,18.6,0,0,0-2.811.494l-.6-16.267a1.458,1.458,0,0,1,1.359-1.494l1.45-.085a1.435,1.435,0,0,1,1.5,1.139Z" transform="translate(-1115.272 -460.153)" fill="#fff"></path></svg>